<svg width="256" height="256" viewBox="0 0 256 256" fill="none" xmlns="http://www.w3.org/2000/svg">
  <defs>
    <filter id="glow" x="-50%" y="-50%" width="200%" height="200%">
      <feGaussianBlur stdDeviation="8" result="blur" />
      <feComposite in="SourceGraphic" in2="blur" operator="over" />
    </filter>
    <linearGradient id="brainGradient" x1="0%" y1="0%" x2="100%" y2="100%">
      <stop offset="0%" stop-color="#9932CC" />
      <stop offset="100%" stop-color="#4169E1" />
    </linearGradient>
    <linearGradient id="voteGradient" x1="0%" y1="0%" x2="100%" y2="100%">
      <stop offset="0%" stop-color="#FF00FF" />
      <stop offset="100%" stop-color="#00BFFF" />
    </linearGradient>
  </defs>
  
  <!-- Glow effect -->
  <ellipse cx="128" cy="128" rx="110" ry="100" fill="#9932CC" opacity="0.15" filter="url(#glow)" />
  
  <!-- Brain in center -->
  <path d="M128 70C104.8 70 86 88.8 86 112C86 135.2 104.8 154 128 154C151.2 154 170 135.2 170 112C170 88.8 151.2 70 128 70Z" stroke="url(#brainGradient)" stroke-width="2.5" fill="none" />
  
  <!-- Brain connections -->
  <path d="M100 98C100 98 114 84 128 84C142 84 156 98 156 98" stroke="url(#brainGradient)" stroke-width="2" fill="none" />
  <path d="M100 126C100 126 114 140 128 140C142 140 156 126 156 126" stroke="url(#brainGradient)" stroke-width="2" fill="none" />
  <path d="M108 112H148" stroke="url(#brainGradient)" stroke-width="2" fill="none" />
  
  <!-- Neural network nodes in brain -->
  <circle cx="100" cy="98" r="4" fill="url(#brainGradient)" />
  <circle cx="156" cy="98" r="4" fill="url(#brainGradient)" />
  <circle cx="100" cy="126" r="4" fill="url(#brainGradient)" />
  <circle cx="156" cy="126" r="4" fill="url(#brainGradient)" />
  <circle cx="108" cy="112" r="4" fill="url(#brainGradient)" />
  <circle cx="148" cy="112" r="4" fill="url(#brainGradient)" />
  <circle cx="128" cy="84" r="4" fill="url(#brainGradient)" />
  <circle cx="128" cy="140" r="4" fill="url(#brainGradient)" />
  <circle cx="128" cy="112" r="6" fill="url(#brainGradient)" />
  
  <!-- Voting/Governance elements -->
  <!-- Vote boxes -->
  <rect x="60" y="170" width="30" height="30" rx="4" stroke="url(#voteGradient)" stroke-width="2" fill="none" />
  <rect x="113" y="170" width="30" height="30" rx="4" stroke="url(#voteGradient)" stroke-width="2" fill="none" />
  <rect x="166" y="170" width="30" height="30" rx="4" stroke="url(#voteGradient)" stroke-width="2" fill="none" />
  
  <!-- Check mark in first box -->
  <path d="M68 185L75 192L82 178" stroke="url(#voteGradient)" stroke-width="2" stroke-linecap="round" />
  
  <!-- X mark in second box -->
  <path d="M120 177L136 193M136 177L120 193" stroke="url(#voteGradient)" stroke-width="2" stroke-linecap="round" />
  
  <!-- Abstain mark in third box -->
  <circle cx="181" cy="185" r="6" stroke="url(#voteGradient)" stroke-width="2" fill="none" />
  
  <!-- Connection lines from brain to voting -->
  <path d="M100 140L75 170" stroke="url(#voteGradient)" stroke-width="1.5" stroke-dasharray="4 2" />
  <path d="M128 140L128 170" stroke="url(#voteGradient)" stroke-width="1.5" stroke-dasharray="4 2" />
  <path d="M156 140L181 170" stroke="url(#voteGradient)" stroke-width="1.5" stroke-dasharray="4 2" />
  
  <!-- Animated data flow -->
  <circle cx="100" cy="140" r="2" fill="white">
    <animate attributeName="opacity" values="0;1;0" dur="2s" repeatCount="indefinite" />
    <animate attributeName="cy" from="140" to="170" dur="2s" repeatCount="indefinite" />
  </circle>
  
  <circle cx="128" cy="140" r="2" fill="white">
    <animate attributeName="opacity" values="0;1;0" dur="2s" repeatCount="indefinite" begin="0.5s" />
    <animate attributeName="cy" from="140" to="170" dur="2s" repeatCount="indefinite" begin="0.5s" />
  </circle>
  
  <circle cx="156" cy="140" r="2" fill="white">
    <animate attributeName="opacity" values="0;1;0" dur="2s" repeatCount="indefinite" begin="1s" />
    <animate attributeName="cy" from="140" to="170" dur="2s" repeatCount="indefinite" begin="1s" />
  </circle>
  
  <!-- Labels -->
  <text x="75" y="210" font-family="Arial" font-size="10" fill="url(#voteGradient)" text-anchor="middle">FOR</text>
  <text x="128" y="210" font-family="Arial" font-size="10" fill="url(#voteGradient)" text-anchor="middle">AGAINST</text>
  <text x="181" y="210" font-family="Arial" font-size="10" fill="url(#voteGradient)" text-anchor="middle">ABSTAIN</text>
</svg> 