<svg width="200" height="200" viewBox="0 0 200 200" fill="none" xmlns="http://www.w3.org/2000/svg">
  <!-- Glow effect -->
  <filter id="glow" x="-50%" y="-50%" width="200%" height="200%">
    <feGaussianBlur stdDeviation="5" result="blur" />
    <feComposite in="SourceGraphic" in2="blur" operator="over" />
  </filter>
  
  <!-- Connection lines -->
  <path d="M60 70L100 50M100 50L140 70M60 70L60 130M60 130L100 150M100 150L140 130M140 70L140 130M60 70L100 100M100 100L140 70M100 100L60 130M100 100L140 130M100 50L100 100M100 100L100 150" 
        stroke="url(#line-gradient)" stroke-width="1.5" stroke-opacity="0.6" />
  
  <!-- Nodes with glow -->
  <circle cx="60" cy="70" r="8" fill="#8A5CF6" filter="url(#glow)" />
  <circle cx="100" cy="50" r="8" fill="#8A5CF6" filter="url(#glow)" />
  <circle cx="140" cy="70" r="8" fill="#8A5CF6" filter="url(#glow)" />
  <circle cx="60" cy="130" r="8" fill="#8A5CF6" filter="url(#glow)" />
  <circle cx="100" cy="150" r="8" fill="#8A5CF6" filter="url(#glow)" />
  <circle cx="140" cy="130" r="8" fill="#8A5CF6" filter="url(#glow)" />
  <circle cx="100" cy="100" r="12" fill="#8A5CF6" filter="url(#glow)">
    <animate attributeName="r" values="12;14;12" dur="3s" repeatCount="indefinite" />
  </circle>
  
  <!-- Pulse animations on connections -->
  <circle cx="80" cy="60" r="2" fill="#C4B5FD">
    <animate attributeName="cx" values="60;100;60" dur="4s" repeatCount="indefinite" />
    <animate attributeName="cy" values="70;50;70" dur="4s" repeatCount="indefinite" />
  </circle>
  
  <circle cx="120" cy="60" r="2" fill="#C4B5FD">
    <animate attributeName="cx" values="100;140;100" dur="3s" repeatCount="indefinite" />
    <animate attributeName="cy" values="50;70;50" dur="3s" repeatCount="indefinite" />
  </circle>
  
  <circle cx="80" cy="140" r="2" fill="#C4B5FD">
    <animate attributeName="cx" values="60;100;60" dur="5s" repeatCount="indefinite" />
    <animate attributeName="cy" values="130;150;130" dur="5s" repeatCount="indefinite" />
  </circle>
  
  <!-- Gradients -->
  <defs>
    <linearGradient id="line-gradient" x1="60" y1="50" x2="140" y2="150" gradientUnits="userSpaceOnUse">
      <stop offset="0%" stop-color="#A78BFA" />
      <stop offset="100%" stop-color="#7C3AED" />
    </linearGradient>
  </defs>
</svg> 