<svg width="256" height="256" viewBox="0 0 256 256" fill="none" xmlns="http://www.w3.org/2000/svg">
  <g filter="url(#filter0_d_12_36)">
    <path d="M128 32L48 80L128 128L208 80L128 32Z" fill="url(#paint0_linear_12_36)"/>
    <path d="M48 80V176L128 224V128L48 80Z" fill="url(#paint1_linear_12_36)"/>
    <path d="M208 80V176L128 224V128L208 80Z" fill="url(#paint2_linear_12_36)"/>
    <path d="M128 32L48 80L128 128L208 80L128 32Z" stroke="white" stroke-width="2"/>
    <path d="M48 80V176L128 224V128L48 80Z" stroke="white" stroke-width="2"/>
    <path d="M208 80V176L128 224V128L208 80Z" stroke="white" stroke-width="2"/>
    <path d="M128 80L88 104M128 80L168 104" stroke="white" stroke-width="2"/>
  </g>
  <defs>
    <filter id="filter0_d_12_36" x="0" y="0" width="256" height="256" filterUnits="userSpaceOnUse" color-interpolation-filters="sRGB">
      <feFlood flood-opacity="0" result="BackgroundImageFix"/>
      <feColorMatrix in="SourceAlpha" type="matrix" values="0 0 0 0 0 0 0 0 0 0 0 0 0 0 0 0 0 0 127 0" result="hardAlpha"/>
      <feOffset/>
      <feGaussianBlur stdDeviation="16"/>
      <feComposite in2="hardAlpha" operator="out"/>
      <feColorMatrix type="matrix" values="0 0 0 0 0.941 0 0 0 0 0.345 0 0 0 0 0.933 0 0 0 0.5 0"/>
      <feBlend mode="normal" in2="BackgroundImageFix" result="effect1_dropShadow_12_36"/>
      <feBlend mode="normal" in="SourceGraphic" in2="effect1_dropShadow_12_36" result="shape"/>
    </filter>
    <linearGradient id="paint0_linear_12_36" x1="48" y1="32" x2="208" y2="128" gradientUnits="userSpaceOnUse">
      <stop stop-color="#F058EE"/>
      <stop offset="1" stop-color="#8A2BE2"/>
    </linearGradient>
    <linearGradient id="paint1_linear_12_36" x1="48" y1="80" x2="128" y2="224" gradientUnits="userSpaceOnUse">
      <stop stop-color="#F058EE"/>
      <stop offset="0.5" stop-color="#C64AE6"/>
      <stop offset="1" stop-color="#8A2BE2"/>
    </linearGradient>
    <linearGradient id="paint2_linear_12_36" x1="208" y1="80" x2="128" y2="224" gradientUnits="userSpaceOnUse">
      <stop stop-color="#F058EE"/>
      <stop offset="0.5" stop-color="#C64AE6"/>
      <stop offset="1" stop-color="#8A2BE2"/>
    </linearGradient>
  </defs>
</svg> 